<svg id="svg" xmlns="http://www.w3.org/2000/svg" xmlns:xlink="http://www.w3.org/1999/xlink" width="400" height="400" viewBox="0, 0, 400,400"><g id="svgg"><path id="path0" d="M4.117 23.551 C -1.136 27.683,-1.653 37.409,3.125 42.188 C 5.997 45.059,8.333 45.313,31.976 45.313 C 54.884 45.313,57.861 45.612,59.151 48.047 C 61.868 53.176,112.639 243.824,111.694 245.352 C 111.177 246.190,109.360 246.875,107.658 246.875 C 97.974 246.875,83.041 260.680,79.659 272.758 C 72.619 297.904,89.490 318.971,117.557 320.081 C 129.762 320.564,131.327 320.946,130.358 323.206 C 116.876 354.637,154.016 389.995,186.051 376.228 C 204.930 368.114,216.386 342.660,209.414 324.320 L 207.890 320.313 243.750 320.313 L 279.610 320.312 278.086 324.320 C 268.494 349.550,289.902 378.785,317.969 378.785 C 346.160 378.785,367.443 349.548,357.770 324.107 C 356.435 320.597,356.669 319.532,359.154 317.792 C 365.839 313.109,364.442 300.536,356.852 297.078 C 354.080 295.815,318.807 295.312,232.867 295.312 C 166.806 295.313,111.617 294.876,110.226 294.342 C 103.430 291.734,101.639 281.590,106.895 275.478 L 110.665 271.094 232.409 270.313 L 354.152 269.531 359.921 265.130 C 369.179 258.067,369.646 256.667,385.176 189.467 C 403.326 110.928,403.496 106.933,389.063 97.939 L 383.594 94.531 241.048 94.101 L 98.502 93.671 96.176 85.507 C 94.897 81.017,91.401 68.241,88.408 57.116 C 79.190 22.855,75.489 20.415,32.633 20.350 C 10.283 20.316,7.888 20.585,4.117 23.551 M156.250 120.102 C 156.250 120.846,157.656 131.839,159.375 144.531 C 161.094 157.224,162.500 168.217,162.500 168.960 C 162.500 169.704,152.683 170.313,140.685 170.313 L 118.870 170.313 117.108 163.672 C 110.333 138.137,106.066 122.377,105.475 120.703 C 104.942 119.192,110.606 118.750,130.518 118.750 C 144.671 118.750,156.250 119.358,156.250 120.102 M231.250 144.531 L 231.250 170.313 209.642 170.313 L 188.035 170.313 185.353 148.828 C 183.879 137.012,182.296 125.410,181.837 123.047 L 181.002 118.750 206.126 118.750 L 231.250 118.750 231.250 144.531 M305.726 123.828 C 305.247 126.621,303.659 138.223,302.198 149.609 L 299.542 170.313 277.896 170.313 L 256.250 170.313 256.250 144.531 L 256.250 118.750 281.424 118.750 L 306.598 118.750 305.726 123.828 M375.000 120.215 C 375.000 121.021,372.539 132.315,369.531 145.312 C 366.523 158.310,364.063 169.252,364.063 169.628 C 364.063 170.005,355.195 170.313,344.357 170.313 L 324.652 170.313 325.508 165.234 C 325.978 162.441,327.554 150.840,329.009 139.453 L 331.655 118.750 353.328 118.750 C 365.777 118.750,375.000 119.374,375.000 120.215 M169.554 220.703 L 172.792 245.313 156.900 245.313 C 146.019 245.313,140.539 244.697,139.523 243.359 C 138.034 241.400,126.563 200.378,126.563 197.012 C 126.563 195.734,132.270 195.345,146.439 195.656 L 166.315 196.094 169.554 220.703 M231.250 220.313 L 231.250 245.313 214.874 245.313 C 199.153 245.313,198.467 245.172,197.753 241.797 C 196.640 236.540,192.188 201.739,192.188 198.300 C 192.188 195.518,193.530 195.313,211.719 195.313 L 231.250 195.313 231.250 220.313 M292.992 219.922 L 289.754 244.531 273.002 244.975 L 256.250 245.418 256.250 220.365 L 256.250 195.313 276.240 195.313 L 296.229 195.313 292.992 219.922 M357.813 195.875 C 357.813 197.917,346.977 242.321,346.153 243.654 C 344.086 246.998,315.625 245.759,315.625 242.325 C 315.625 238.886,320.078 204.085,321.190 198.828 C 321.854 195.693,357.813 192.794,357.813 195.875 M176.545 322.647 C 195.483 332.441,182.508 361.363,163.272 352.235 C 150.714 346.276,150.057 329.309,162.129 322.758 C 167.619 319.780,170.950 319.754,176.545 322.647 M324.983 322.647 C 343.585 332.267,331.239 360.601,311.957 352.544 C 299.151 347.193,297.963 330.617,309.865 323.360 C 315.852 319.709,319.013 319.560,324.983 322.647 " stroke="none" fill="#000000" fill-rule="evenodd"></path></g></svg>